<svg xmlns="http://www.w3.org/2000/svg" viewBox="0 0 141.98 130.48"><defs><style>.cls-1{fill:none;opacity:0;}.cls-2{fill:#fff;}.cls-3{fill:#6ecdef;}.cls-4{fill:#f4608e;}.cls-5{fill:#5e5aa6;}.cls-6{fill:#2bb8f7;}.cls-7{fill:#ffaf45;}.cls-8{fill:#fc9163;}.cls-9{fill:#a3458b;}.cls-10,.cls-12{fill:#ff895a;}.cls-11{fill:#f2447a;}.cls-12{opacity:0.4;}</style></defs><title>logo-stacked-light</title><g id="Layer_2" data-name="Layer 2"><g id="Layer_1-2" data-name="Layer 1"><rect class="cls-1" width="141.98" height="130.48"/><path class="cls-2" d="M54.74,72.31a14.53,14.53,0,0,1-12.23-6.67l-.15-.23-.26,0a17.91,17.91,0,0,1-10.68-34l.33-.14L31.64,31a10.8,10.8,0,0,1-.55-3.43A10.92,10.92,0,0,1,52,23.09l.16.35.35-.15A17.91,17.91,0,0,1,69.25,54.82L69,55l0,.25a14.53,14.53,0,0,1-14.33,17.1Z"/><path class="cls-2" d="M33.59,87.13c0,6.13-4.18,10.29-10.39,10.29h-8V76.87h8.25C29.47,76.87,33.59,81,33.59,87.13Zm-5.11.06c0-3.54-2.16-6-5.19-6H20.16V93.07h3.39c2.89,0,4.94-2.36,4.94-5.88Z"/><path class="cls-2" d="M53.24,97.66a6.69,6.69,0,0,1-5.6-3.17,6.6,6.6,0,0,1-5.55,3.17c-3.88,0-6.44-2.85-6.44-7.1v-9h4.8v8.75a2.41,2.41,0,0,0,2.4,2.7c1.45,0,2.35-1.05,2.35-2.7V81.57H50v8.77A2.43,2.43,0,0,0,52.46,93c1.4,0,2.33-1.05,2.33-2.7V81.57h4.8v9C59.6,94.81,57.06,97.66,53.24,97.66Z"/><path class="cls-2" d="M73.67,91.74l2.73,2.63a8.21,8.21,0,0,1-6.78,3.23c-4.78,0-8-3.2-8-8s3-8.15,7.7-8.2c4.43,0,7.35,2.87,7.46,7.56l-9.89,2.58A3.19,3.19,0,0,0,70,93.68,5,5,0,0,0,73.67,91.74Zm-7.13-3.13L72,87.15a2.43,2.43,0,0,0-2.46-2.08c-1.75,0-2.87,1.27-3,3.56Z"/><path class="cls-2" d="M85,93.11a2.94,2.94,0,0,0,1.39-.39L86.8,97a7.34,7.34,0,0,1-2.84.67c-2.73,0-5.1-1.91-5.1-6V75.67h4.86V91.51c0,1.14.51,1.6,1.28,1.6Z"/><path class="cls-2" d="M94.47,93.11a3,3,0,0,0,1.39-.39l.41,4.3a7.34,7.34,0,0,1-2.84.67c-2.73,0-5.11-1.91-5.11-6V75.67h4.86V91.51c0,1.14.51,1.6,1.29,1.6Z"/><path class="cls-2" d="M103.19,85c-.82,0-1.39.32-1.39,1,0,2.08,7.75,1.09,7.73,6.6,0,3.25-2.65,5.1-6.25,5.1a10.42,10.42,0,0,1-6.67-2.24L98.14,92a9.18,9.18,0,0,0,5.24,2c.91,0,1.57-.33,1.57-1,0-2.17-7.62-1.09-7.62-6.57,0-3.31,2.59-5.12,6.06-5.12a11.33,11.33,0,0,1,6.14,1.84l-1.63,3.4A10.73,10.73,0,0,0,103.19,85Z"/><path class="cls-2" d="M126.82,81.57V95.78c0,4.48-3.22,7.56-7.81,7.53a12.85,12.85,0,0,1-6.66-2.08l1.17-3.63a10.45,10.45,0,0,0,4.92,1.56A3.32,3.32,0,0,0,122,95.67V93.39a5.18,5.18,0,0,1-4.76,2.69c-3.38,0-5.51-2.34-5.51-6.07V81.55h4.86v7c0,1.79,1,2.87,2.51,2.87,1.81,0,2.9-1.43,2.9-3.66V81.57Z"/><path class="cls-3" d="M43.82,30.43a18.39,18.39,0,0,1,8.52-7.5,11.31,11.31,0,0,0-21.07,8.16,18.24,18.24,0,0,1,12.55-.66Z"/><path class="cls-4" d="M54.2,57.25a18.33,18.33,0,0,1-12,8.6A14.95,14.95,0,0,0,69.46,55.14,18.32,18.32,0,0,1,54.2,57.25Z"/><path class="cls-5" d="M43.3,48.13a18.17,18.17,0,0,1-2-8.38c0-.31,0-.62,0-.92a11.3,11.3,0,0,1-10-7.74A18.31,18.31,0,0,0,42.18,65.85,14.93,14.93,0,0,1,43.3,48.13Z"/><path class="cls-3" d="M41.29,38.83a18.07,18.07,0,0,1,2.53-8.4,18.24,18.24,0,0,0-12.55.66A11.3,11.3,0,0,0,41.29,38.83Z"/><path class="cls-6" d="M41.29,38.83a18.07,18.07,0,0,1,2.53-8.4,18.24,18.24,0,0,0-12.55.66A11.3,11.3,0,0,0,41.29,38.83Z"/><path class="cls-7" d="M43.3,48.13a18.34,18.34,0,0,0,10.9,9.12h0A18.31,18.31,0,1,0,43.82,30.43a18.07,18.07,0,0,0-2.53,8.4c0,.3,0,.61,0,.92a18.17,18.17,0,0,0,2,8.38"/><path class="cls-8" d="M50.91,34.52a18.23,18.23,0,0,0-7.09-4.09,18.07,18.07,0,0,0-2.53,8.4c0,.3,0,.61,0,.92a18.17,18.17,0,0,0,2,8.38A14.91,14.91,0,0,1,54.74,42.8c.44,0,.87,0,1.3.06A18.33,18.33,0,0,0,50.91,34.52Z"/><path class="cls-5" d="M54.2,57.25a18.34,18.34,0,0,1-10.9-9.12,14.93,14.93,0,0,0-1.12,17.72A18.33,18.33,0,0,0,54.2,57.25Z"/><path class="cls-9" d="M54.2,57.25a18.34,18.34,0,0,1-10.9-9.12,14.93,14.93,0,0,0-1.12,17.72A18.33,18.33,0,0,0,54.2,57.25Z"/><path class="cls-10" d="M56,42.86a18.43,18.43,0,0,1,.71,5.07,18.21,18.21,0,0,1-2.55,9.32,18.32,18.32,0,0,0,15.26-2.11A15,15,0,0,0,56,42.86Z"/><path class="cls-11" d="M43.3,48.13a18.34,18.34,0,0,0,10.9,9.12,18.21,18.21,0,0,0,2.55-9.32A18.43,18.43,0,0,0,56,42.86c-.43,0-.86-.06-1.3-.06A14.91,14.91,0,0,0,43.3,48.13Z"/><path class="cls-12" d="M43.3,48.13a18.34,18.34,0,0,0,10.9,9.12,18.21,18.21,0,0,0,2.55-9.32A18.43,18.43,0,0,0,56,42.86c-.43,0-.86-.06-1.3-.06A14.91,14.91,0,0,0,43.3,48.13Z"/></g></g></svg>