<svg xmlns="http://www.w3.org/2000/svg" xmlns:xlink="http://www.w3.org/1999/xlink" width="47.9" height="45.9" viewBox="0 0 47.9 45.9">
  <defs>
    <rect id="rect-1" width="47.9" height="45.9" x="0" y="0"/>
    <mask id="mask-2" maskContentUnits="userSpaceOnUse" maskUnits="userSpaceOnUse">
      <rect width="47.9" height="45.9" x="0" y="0" fill="black"/>
      <use fill="white" xlink:href="#rect-1"/>
    </mask>
  </defs>
  <g>
    <use fill="none" xlink:href="#rect-1"/>
    <g mask="url(#mask-2)">
      <path fill="rgb(255,255,255)" fill-rule="evenodd" d="M28.68348083 45.62097264c-4.09764012 0-7.91268437-2.09270516-10.17345133-5.44103343l-.14129794-.27902736h-.28259587C10.0321534 41.575076 2.26076696 36.41306991.56519174 28.46079027-.84778761 21.62462007 2.8259587 14.78844985 9.18436578 11.9981763l.28259587-.13951368.14129794-.13951367c-.28259587-.83708207-.4238938-1.81367782-.4238938-2.79027356C9.04306784 4.04589666 13.14070795 0 18.08613568 0c3.67374632 0 6.92359882 2.09270517 8.33657817 5.30151976l.14129794.27902735h.28259587c7.48879056-3.34832827 16.24926254 0 19.49911504 7.39422493 2.96725664 6.69665653.56519174 14.50942249-5.6519174 18.41580547l-.14129794.13951368v.27902735c.14129794.69756839.28259587 1.39513678.28259587 2.09270517 0 6.41762918-5.51061946 11.71914893-12.15162241 11.71914893z"/>
      <path fill="rgb(111,204,238)" fill-rule="evenodd" d="M19.64041298 11.44012158c1.69557522-2.65075988 4.09764012-4.88297872 7.06489675-6.13860182C24.44454277.69756839 18.79262537-1.11610942 14.12979351 1.2556231c-3.95634218 1.81367781-6.0758112 6.41762918-4.8041298 10.60303951 1.83687316-.69756839 3.95634219-1.11610942 5.93451328-1.11610942 1.55427729 0 2.96725664.13951368 4.38023599.6975684z"/>
      <path fill="rgb(240,96,142)" fill-rule="evenodd" d="M28.25958702 33.343769c-2.11946903 3.62735562-5.79321534 6.13860182-9.89085546 6.97568389 3.67374632 5.72006079 11.30383481 7.25471124 17.09705015 3.62735562 4.23893805-2.65075988 6.35840708-7.5337386 5.51061947-12.41671732-3.81504425 2.37173252-8.4778761 3.0693009-12.71681416 1.8136778z"/>
      <path fill="rgb(94,91,168)" fill-rule="evenodd" d="M19.21651917 25.8100304c-1.13038348-2.09270517-1.69557522-4.4644377-1.69557522-6.83617022v-.69756839c-3.81504424-.27902735-7.06489675-2.79027355-8.33657817-6.41762918-7.77138643 3.2088146-11.44513274 11.85866262-8.19528023 19.5319149 2.8259587 6.69665653 10.03215339 10.32401216 17.09705014 8.92887538-2.68466076-4.4644377-2.26076696-10.32401216 1.13038348-14.5094225z"/>
      <path fill="rgb(111,204,238)" fill-rule="evenodd" d="M17.66224189 18.2762918c.14129793-2.37173253.8477876-4.74346505 2.11946902-6.83617022-1.41297935-.41854103-2.96725663-.69756839-4.38023598-.69756839-2.11946903 0-4.23893806.41854103-6.07581121 1.11610942 1.13038348 3.62735563 4.52153392 6.13860183 8.33657817 6.41762918z"/>
      <path fill="rgb(69,181,232)" fill-rule="evenodd" d="M17.66224189 18.2762918c.14129793-2.37173253.8477876-4.74346505 2.11946902-6.83617022-1.41297935-.41854103-2.96725663-.69756839-4.38023598-.69756839-2.11946903 0-4.23893806.41854103-6.07581121 1.11610942 1.13038348 3.62735563 4.52153392 6.13860183 8.33657817 6.41762918z"/>
      <path fill="rgb(251,174,72)" fill-rule="evenodd" d="M19.21651917 25.8100304c1.83687316 3.62735562 5.08672567 6.2781155 9.04306785 7.39422492 8.0539823 2.37173252 16.5318584-1.95319149 18.9339233-9.90547113 2.4020649-7.95227963-1.97817109-16.3231003-10.03215339-18.69483282-8.0539823-2.37173253-16.5318584 1.95319149-18.9339233 9.90547112-.4238938 1.11610942-.56519174 2.37173253-.70648968 3.62735563v.69756838c0 2.5112462.70648968 4.88297873 1.69557522 6.9756839"/>
      <path fill="rgb(246,145,101)" fill-rule="evenodd" d="M25.57492625 14.78844985c-1.69557522-1.53465046-3.6737463-2.65075988-5.93451327-3.34832827-1.27168142 2.09270517-1.9781711 4.4644377-2.11946903 6.83617021v.6975684c0 2.37173252.56519174 4.74346504 1.69557522 6.8361702 2.4020649-2.79027355 5.79321534-4.324924 9.46696166-4.324924h1.13038348c-.84778761-2.5112462-2.26076696-4.88297873-4.23893806-6.69665654z"/>
      <path fill="rgb(94,91,168)" fill-rule="evenodd" d="M28.25958702 33.343769c-3.95634218-1.2556231-7.06489675-3.90638298-9.04306785-7.39422493-3.53244837 4.04589666-3.81504424 9.90547113-.98908554 14.5094225 4.23893805-.97659575 7.91268436-3.48784195 10.0321534-7.11519757z"/>
      <path fill="rgb(164,70,139)" fill-rule="evenodd" d="M28.25958702 33.343769c-3.95634218-1.2556231-7.06489675-3.90638298-9.04306785-7.39422493-3.53244837 4.04589666-3.81504424 9.90547113-.98908554 14.5094225 4.23893805-.97659575 7.91268436-3.48784195 10.0321534-7.11519757z"/>
      <path fill="rgb(245,137,94)" fill-rule="evenodd" d="M29.8138643 21.48510638c.42389381 1.39513678.56519175 2.79027356.56519175 4.18541034 0 2.65075988-.70648968 5.30151975-2.11946903 7.67325228 4.23893805 1.2556231 8.90176991.69756839 12.57551622-1.67416414-.98908554-5.5805471-5.51061946-9.62644377-11.02123893-10.18449848z"/>
      <path fill="rgb(239,70,123)" fill-rule="evenodd" d="M19.21651917 25.8100304c1.83687316 3.62735562 5.08672567 6.2781155 9.04306785 7.39422492 1.41297935-2.37173252 2.11946903-4.88297872 2.11946903-7.67325228 0-1.39513678-.14129794-2.79027356-.56519174-4.18541033h-1.13038348c-3.67374632.13951367-7.06489676 1.67416413-9.46696166 4.46443769z"/>
      <g opacity=".4">
        <path fill="rgb(245,137,94)" fill-rule="evenodd" d="M19.21651917 25.8100304c1.83687316 3.62735562 5.08672567 6.2781155 9.04306785 7.39422492 1.41297935-2.37173252 2.11946903-4.88297872 2.11946903-7.67325228 0-1.39513678-.14129794-2.79027356-.56519174-4.18541033h-1.13038348c-3.67374632.13951367-7.06489676 1.67416413-9.46696166 4.46443769z"/>
      </g>
      <path fill="rgb(255,255,255)" fill-rule="evenodd" d="M23.87934875 33.34377289c6.35840989 0 10.73864747-4.32492829 10.73864747-10.6030426 0-6.27811432-4.2389412-10.6030388-10.59734726-10.6030388h-8.47787667v21.2060814h8.33657646zm0-16.6021309c3.10855484 0 5.36932374 2.51124574 5.36932374 6.13860322 0 3.62735367-2.1194687 5.99908829-5.08672715 6.1385994h-3.53244781V16.741642h3.24985122z"/>
    </g>
  </g>
</svg>
